<svg width="14" height="14" fill="none" xmlns="http://www.w3.org/2000/svg"><g clip-path="url(#clip0)" fill="#DDD"><path d="M6.999 5.09A1.91 1.91 0 005.089 7 1.91 1.91 0 007 8.909a1.91 1.91 0 001.909-1.91 1.91 1.91 0 00-1.91-1.908z"/><path d="M7 2.227c-3.182 0-5.9 1.98-7 4.773a7.526 7.526 0 007 4.773c3.185 0 5.9-1.98 7-4.773a7.523 7.523 0 00-7-4.773zm0 7.955a3.183 3.183 0 010-6.364 3.183 3.183 0 010 6.364z"/></g><defs><clipPath id="clip0"><path fill="#fff" d="M0 0h14v14H0z"/></clipPath></defs></svg>