<svg width="40" height="41" fill="none" xmlns="http://www.w3.org/2000/svg"><path d="M23.828 20.326a3.828 3.828 0 11-7.656 0 3.828 3.828 0 017.656 0z" fill="#001F43"/><path d="M28.952 13.553a3.558 3.558 0 00-.86-1.32 3.555 3.555 0 00-1.32-.86c-.404-.157-1.012-.344-2.132-.395-1.211-.055-1.574-.067-4.64-.067-3.067 0-3.43.012-4.642.067-1.12.051-1.727.238-2.132.396a3.54 3.54 0 00-1.32.858 3.57 3.57 0 00-.86 1.321c-.157.405-.344 1.013-.395 2.133-.055 1.21-.067 1.574-.067 4.64 0 3.067.012 3.43.067 4.641.051 1.12.238 1.728.395 2.133.185.498.478.95.86 1.32.37.381.82.675 1.32.86.405.156 1.013.344 2.132.395 1.211.055 1.574.066 4.641.066s3.43-.011 4.64-.066c1.12-.051 1.729-.239 2.133-.396a3.803 3.803 0 002.18-2.18c.157-.404.344-1.012.395-2.132.056-1.211.067-1.574.067-4.64 0-3.067-.011-3.43-.067-4.641-.05-1.12-.238-1.728-.395-2.133zm-8.953 12.67a5.897 5.897 0 110-11.794 5.897 5.897 0 010 11.794zm6.13-10.65a1.378 1.378 0 110-2.755 1.378 1.378 0 010 2.756z" fill="#001F43"/><path d="M20 .326c-11.044 0-20 8.956-20 20s8.956 20 20 20 20-8.956 20-20-8.956-20-20-20zm11.415 24.735c-.055 1.223-.25 2.057-.534 2.788a5.872 5.872 0 01-3.358 3.358c-.73.284-1.566.478-2.788.534-1.225.056-1.616.07-4.735.07s-3.51-.014-4.735-.07c-1.222-.056-2.057-.25-2.787-.534a5.627 5.627 0 01-2.035-1.324 5.63 5.63 0 01-1.324-2.034c-.284-.73-.478-1.566-.534-2.788-.056-1.225-.07-1.616-.07-4.735s.014-3.51.07-4.735c.055-1.222.25-2.057.533-2.787a5.63 5.63 0 011.325-2.034 5.625 5.625 0 012.034-1.325c.731-.284 1.566-.478 2.788-.534 1.225-.056 1.616-.07 4.735-.07s3.51.014 4.735.07c1.222.056 2.057.25 2.788.534a5.63 5.63 0 012.034 1.325 5.626 5.626 0 011.324 2.034c.285.73.479 1.565.534 2.787.056 1.225.07 1.616.07 4.735 0 3.12-.014 3.51-.07 4.735z" fill="#001F43"/></svg>