<svg width="20" height="20" fill="none" xmlns="http://www.w3.org/2000/svg"><path fill-rule="evenodd" clip-rule="evenodd" d="M3.584.833h1.833a.917.917 0 01.107 1.827l-.107.007H3.584a.917.917 0 00-.91.81l-.007.106v12.834c0 .47.354.857.81.91l.107.006h12.833c.47 0 .858-.353.91-.81l.007-.106v-1.834a.917.917 0 011.827-.107l.006.107v1.834a2.75 2.75 0 01-2.588 2.745l-.162.005H3.584a2.75 2.75 0 01-2.745-2.589l-.005-.161V3.583A2.75 2.75 0 013.422.838l.162-.005h1.833-1.833zm14.667 0l.074.003.11.016.102.027.102.04.089.048.088.061.083.074.088.102.066.102.028.056.031.075.023.07.026.135.006.108v5.5a.917.917 0 11-1.833 0V3.963l-5.768 5.769a.917.917 0 01-1.21.076l-.087-.076a.917.917 0 01-.076-1.21l.076-.087 5.767-5.768h-3.285a.917.917 0 110-1.834h5.5z" fill="#fff"/></svg>