<svg width="18" height="18" fill="none" xmlns="http://www.w3.org/2000/svg"><path d="M17.988 3.878c0-.021.014-.041.013-.061l-5.493 5.292 5.486 5.124c.003-.037-.006-.073-.006-.11V3.877zm-6.319 6.046l-2.243 2.158a.585.585 0 01-.806.006l-2.236-2.084L.86 15.327c.135.048.279.086.43.086h15.458c.224 0 .434-.069.617-.17l-5.697-5.319z" fill="#001F43"/><path d="M9.012 10.851l8.383-8.075a1.27 1.27 0 00-.647-.189H1.289c-.308 0-.59.12-.81.303l8.533 7.961zM0 4.074v10.048c0 .115.027.227.055.333L5.51 9.203 0 4.074z" fill="#001F43"/></svg>