<svg width="18" height="14" fill="none" xmlns="http://www.w3.org/2000/svg"><path d="M17.987 1.877c0-.02.014-.04.013-.06l-5.493 5.292 5.486 5.124c.004-.037-.006-.074-.006-.111V1.877zm-6.319 6.047L9.426 10.08a.585.585 0 01-.807.007L6.383 8.004.861 13.327c.134.048.278.085.43.085h15.457c.225 0 .435-.068.618-.17l-5.698-5.318z" fill="#fff"/><path d="M9.013 8.85L17.396.776a1.27 1.27 0 00-.648-.188H1.29a1.269 1.269 0 00-.81.301l8.533 7.962zM0 2.074v10.048c0 .115.027.227.055.333L5.51 7.203 0 2.074z" fill="#fff"/></svg>