<svg width="20" height="20" fill="none" xmlns="http://www.w3.org/2000/svg"><path d="M2.969 9.375c.472 0 .9-.19 1.216-.494l1.735.867c-.009.07-.022.14-.022.213 0 .97.789 1.758 1.758 1.758A1.76 1.76 0 009.414 9.96c0-.27-.066-.524-.176-.753l2.353-2.353c.229.11.482.176.753.176a1.76 1.76 0 001.758-1.758 1.73 1.73 0 00-.088-.52l2.044-1.533c.28.186.613.296.973.296a1.76 1.76 0 001.758-1.758A1.76 1.76 0 0017.031 0a1.76 1.76 0 00-1.758 1.758c0 .182.036.355.088.52l-2.044 1.533a1.746 1.746 0 00-.973-.295 1.76 1.76 0 00-1.758 1.757c0 .271.066.524.176.753L8.41 8.38a1.736 1.736 0 00-.753-.176c-.472 0-.9.19-1.216.494L4.705 7.83c.009-.07.022-.14.022-.213A1.76 1.76 0 002.969 5.86 1.76 1.76 0 001.21 7.617c0 .97.789 1.758 1.758 1.758z" fill="#001F43"/><path d="M19.414 18.828h-.625V6.445a.586.586 0 00-.586-.586H15.86a.586.586 0 00-.586.586v12.383h-1.171V9.961a.586.586 0 00-.586-.586h-2.344a.586.586 0 00-.586.586v8.867H9.414v-4.18a.586.586 0 00-.586-.585H6.484a.586.586 0 00-.586.585v4.18H4.727v-6.523a.586.586 0 00-.586-.586H1.797a.586.586 0 00-.586.586v6.523H.586a.586.586 0 100 1.172h18.828a.586.586 0 100-1.172z" fill="#001F43"/></svg>