<svg width="20" height="20" fill="none" xmlns="http://www.w3.org/2000/svg"><g clip-path="url(#clip0)" fill="#001F43"><path d="M16.17 4.686H20V14.94h-3.83V4.686zm2.438-3.469a.586.586 0 00-1.045 0l-1.167 2.297h3.378l-1.166-2.297zM16.17 17.596c0 .858.703 1.556 1.567 1.556h.696c.864 0 1.567-.698 1.567-1.556V16.11h-3.83v1.485zM12.443.86H2.516A2.518 2.518 0 000 3.374v13.262a2.518 2.518 0 002.516 2.515h9.927a2.518 2.518 0 002.516-2.515V3.375A2.518 2.518 0 0012.443.859zM6.495 15.3H2.998a.586.586 0 110-1.173h3.497a.586.586 0 110 1.172zm0-2.384H2.998a.586.586 0 110-1.172h3.497a.586.586 0 110 1.172zm0-2.344H2.998a.586.586 0 110-1.172h3.497a.586.586 0 110 1.172zm0-2.344H2.998a.586.586 0 110-1.172h3.497a.586.586 0 110 1.172zm0-2.344H2.998a.586.586 0 110-1.172h3.497a.586.586 0 110 1.172z"/></g><defs><clipPath id="clip0"><path fill="#fff" d="M0 0h20v20H0z"/></clipPath></defs></svg>