<svg width="24" height="24" fill="none" xmlns="http://www.w3.org/2000/svg"><g clip-path="url(#clip0)"><path d="M16.895 6.025h4.434L15.716.412v4.434c0 .65.529 1.18 1.18 1.18z" fill="#001F43"/><path d="M16.895 7.431a2.589 2.589 0 01-2.586-2.586V0H4.845A2.589 2.589 0 002.26 2.586v18.828A2.589 2.589 0 004.845 24h14.31a2.589 2.589 0 002.585-2.586V7.431h-4.845z" fill="#001F43"/><path d="M17.045 11.447l-4.97-4.529a.565.565 0 00-.765 0l-4.97 4.529a.564.564 0 00-.147.625c.085.22.293.363.53.363h.793v4.537c0 .18.146.325.326.325h2.724c.18 0 .326-.145.326-.325v-2.755h1.6v2.755c0 .18.147.325.326.325h2.725c.18 0 .325-.145.325-.325v-4.538h.794a.564.564 0 00.53-.362.565.565 0 00-.147-.625z" fill="#EAF4FC"/></g><defs><clipPath id="clip0"><path fill="#fff" d="M0 0h24v24H0z"/></clipPath></defs></svg>