<svg width="20" height="20" fill="none" xmlns="http://www.w3.org/2000/svg"><g clip-path="url(#clip0)" fill="#001F43"><path d="M18.842 8.616H1.082a.929.929 0 000 1.857h17.76a.928.928 0 100-1.857zm-.781-.556A8.099 8.099 0 0010.757 0c1.072.54 3.025 1.865 3.473 4.515a.278.278 0 01-.227.322h-.047a.278.278 0 01-.282-.229C13.177 1.628 10.48.455 9.963.256c-.518.2-3.215 1.371-3.712 4.352a.279.279 0 01-.275.232H5.93a.278.278 0 01-.236-.325C6.137 1.865 8.09.54 9.163 0a8.099 8.099 0 00-7.3 8.06h16.198zm-8.098 7.486a4.52 4.52 0 01-4.52-4.519H.987v.97l2.448.797c.15.565.377 1.109.672 1.615l-1.134 2.32 1.329 1.328 2.291-1.165a6.63 6.63 0 001.62.666L9.055 20h1.879l.798-2.448a6.69 6.69 0 001.617-.67l2.32 1.13 1.328-1.327-1.167-2.293a6.684 6.684 0 00.666-1.618l2.442-.835v-.912h-4.454a4.52 4.52 0 01-4.518 4.52h-.002z"/></g><defs><clipPath id="clip0"><path fill="#fff" d="M0 0h20v20H0z"/></clipPath></defs></svg>