<svg width="20" height="24" fill="none" xmlns="http://www.w3.org/2000/svg"><path d="M14.895 6.025h4.434L13.716.412v4.433c0 .65.529 1.18 1.18 1.18z" fill="#001F43"/><path d="M14.895 7.431a2.589 2.589 0 01-2.586-2.586V0H2.845A2.589 2.589 0 00.26 2.586v18.828A2.589 2.589 0 002.845 24h14.31a2.589 2.589 0 002.585-2.586V7.431h-4.845z" fill="#001F43"/><path d="M11.086 15.872H9.513V17h-1.23v-1.128H7.282v-.991h1v-.523h-1v-.99h1V9.89h2.72c.785 0 1.412.205 1.88.615.47.407.704.949.704 1.626 0 .69-.223 1.232-.67 1.626-.445.39-1.065.59-1.86.6H9.513v.523h1.573v.991zm-1.573-2.505h1.47c.443 0 .781-.102 1.016-.307.234-.206.351-.511.351-.918 0-.365-.115-.663-.346-.894-.228-.231-.544-.351-.948-.361H9.513v2.48z" fill="#EAF4FC"/></svg>