<svg width="20" height="20" fill="none" xmlns="http://www.w3.org/2000/svg"><path d="M18.116 1.884a6.453 6.453 0 00-9.115 0 6.443 6.443 0 00-1.57 6.542L.173 15.684A.586.586 0 000 16.1v3.315c0 .323.262.585.586.585h3.315a.586.586 0 00.414-.171l.828-.83a.586.586 0 00.168-.481l-.103-.89 1.234-.117a.585.585 0 00.528-.528l.116-1.233.89.103a.587.587 0 00.653-.582v-1.09h1.072a.586.586 0 00.414-.172l1.503-1.483c2.295.744 4.78.192 6.497-1.525a6.453 6.453 0 000-9.116zM16.46 6.028a1.76 1.76 0 01-2.486 0 1.76 1.76 0 010-2.486 1.76 1.76 0 012.486 0 1.76 1.76 0 010 2.486z" fill="#001F43"/></svg>