<svg width="20" height="20" fill="none" xmlns="http://www.w3.org/2000/svg"><path d="M14.668 10.703a4.654 4.654 0 00-4.648 4.649A4.654 4.654 0 0014.668 20c2.585 0 4.688-2.085 4.688-4.648 0-2.564-2.103-4.649-4.688-4.649zm1.427 4.086l-1.563 1.875a.586.586 0 01-.974-.113l-.625-1.25a.586.586 0 011.048-.524l.224.449.99-1.187a.586.586 0 01.9.75z" fill="#001F43"/><path d="M14.415 3.338L12.038.879l-.003-.003A2.949 2.949 0 009.945 0H2.402A1.76 1.76 0 00.645 1.758v15.195c0 .97.788 1.758 1.757 1.758h7.516a5.788 5.788 0 01-1.07-3.36 5.827 5.827 0 016.406-5.79V5.39c0-.772-.298-1.5-.839-2.052zm-7.56 9.748H3.73a.586.586 0 110-1.172h3.125a.586.586 0 110 1.172zm0-3.125H3.73a.586.586 0 010-1.172h3.125a.586.586 0 010 1.172zm0-3.125H3.73a.586.586 0 010-1.172h3.125a.586.586 0 010 1.172zm3.75 3.125H9.98a.586.586 0 010-1.172h.625a.586.586 0 010 1.172zm0-3.125H9.98a.586.586 0 010-1.172h.625a.586.586 0 010 1.172z" fill="#001F43"/></svg>