<svg width="20" height="20" fill="none" xmlns="http://www.w3.org/2000/svg"><path d="M11.797 4.688h1.172v4.687h-1.172V4.687zM9.453 7.031h1.172v2.344H9.453V7.031z" fill="#001F43"/><path d="M12.383 15.235c4.2 0 7.617-3.418 7.617-7.618S16.583 0 12.383 0 4.766 3.417 4.766 7.617s3.417 7.618 7.617 7.618zM8.28 6.445c0-.323.262-.586.586-.586h1.758V4.103c0-.324.262-.586.586-.586h2.344c.324 0 .586.262.586.586v2.93h1.758c.323 0 .585.261.585.585v2.344a.586.586 0 01-.586.586h-7.03a.586.586 0 01-.587-.586V6.445z" fill="#001F43"/><path d="M14.14 8.203h1.172v1.172h-1.171V8.203zM3 19.484l4.54-4.54a8.856 8.856 0 01-2.485-2.486l-4.54 4.54a1.76 1.76 0 000 2.486 1.756 1.756 0 002.485 0z" fill="#001F43"/></svg>