<svg width="20" height="20" fill="none" xmlns="http://www.w3.org/2000/svg"><path d="M13.516 8.202h4.687v5.54h-4.687v-5.54zm6.289-2.344H.195A.195.195 0 000 6.054v.781c0 .108.087.195.195.195h19.61A.195.195 0 0020 6.835v-.781a.195.195 0 00-.195-.196zM7.656 8.202h4.688v5.54H7.656v-5.54zM18.203 2.15a.586.586 0 00-.197-.439L16.25.15a.586.586 0 00-.779 0l-1.758 1.562a.586.586 0 00-.196.438v2.538h4.687V2.149zM1.797 8.202h4.687v5.54H1.797v-5.54zm18.008 6.713H.195A.195.195 0 000 15.11v.788c0 .108.087.195.195.195h19.61a.195.195 0 00.195-.195v-.788a.195.195 0 00-.195-.195zm-6.289 4.498c0 .324.262.586.586.586h3.515a.586.586 0 00.586-.586v-2.148h-4.687v2.148zm-5.86 0c0 .324.263.586.586.586h3.516a.586.586 0 00.586-.586v-2.148H7.656v2.148zM12.344 2.15a.586.586 0 00-.197-.439L10.39.15a.586.586 0 00-.778 0L7.853 1.711a.586.586 0 00-.197.438v2.538h4.688V2.149zm-5.86 0a.586.586 0 00-.196-.439L4.53.15a.586.586 0 00-.779 0L1.994 1.711a.586.586 0 00-.197.438v2.538h4.687V2.149zM1.797 19.413c0 .324.262.586.586.586h3.515a.586.586 0 00.586-.586v-2.148H1.797v2.148z" fill="#001F43"/></svg>