<svg width="39" height="39" fill="none" xmlns="http://www.w3.org/2000/svg"><path d="M35.325 3.675c-4.901-4.9-12.875-4.9-17.775 0a12.564 12.564 0 00-3.06 12.756L.334 30.585a1.142 1.142 0 00-.335.808v6.464c0 .632.511 1.142 1.143 1.142h6.463c.304 0 .594-.12.808-.334l1.616-1.617c.246-.247.367-.593.327-.94l-.201-1.736 2.406-.226a1.14 1.14 0 001.03-1.03l.226-2.406 1.736.202c.323.044.647-.065.892-.281.243-.218.382-.528.382-.854V27.65h2.09c.303 0 .593-.12.807-.335l2.93-2.891c4.474 1.45 9.322.375 12.67-2.974 4.9-4.9 4.9-12.874 0-17.775zm-3.233 8.08a3.43 3.43 0 01-4.847 0 3.43 3.43 0 010-4.848 3.43 3.43 0 014.847 0 3.43 3.43 0 010 4.848z" fill="#fff"/></svg>