<svg width="39" height="39" fill="none" xmlns="http://www.w3.org/2000/svg"><path d="M36.741 16.801H2.111a1.81 1.81 0 000 3.62h34.63a1.81 1.81 0 100-3.62zm-1.523-1.084c0-8.122-6.16-14.92-14.243-15.717 2.09 1.054 5.898 3.636 6.773 8.805a.543.543 0 01-.443.626h-.092a.543.543 0 01-.55-.445c-.97-5.813-6.228-8.098-7.237-8.487-1.01.389-6.268 2.674-7.238 8.487a.544.544 0 01-.535.452h-.091a.542.542 0 01-.46-.633c.864-5.169 4.672-7.751 6.764-8.805C9.787.802 3.632 7.597 3.633 15.717h31.585zM19.427 30.315a8.815 8.815 0 01-8.815-8.812H1.926v1.893l4.773 1.552a12.821 12.821 0 001.311 3.149L5.798 32.62l2.592 2.592 4.469-2.274a12.928 12.928 0 003.16 1.3L17.653 39h3.664l1.556-4.774a13.033 13.033 0 003.153-1.306l4.524 2.204 2.591-2.588-2.276-4.472c.57-.99 1.006-2.05 1.299-3.156l4.762-1.627v-1.778h-8.684a8.813 8.813 0 01-8.813 8.812h-.003z" fill="#fff"/></svg>