<svg width="39" height="39" fill="none" xmlns="http://www.w3.org/2000/svg"><path d="M5.787 18.281a3.41 3.41 0 002.373-.963l3.382 1.69c-.017.138-.042.274-.042.416a3.432 3.432 0 003.428 3.428 3.432 3.432 0 003.427-3.428 3.4 3.4 0 00-.343-1.469l4.588-4.588c.447.214.94.344 1.468.344a3.432 3.432 0 003.428-3.428c0-.356-.07-.692-.171-1.015l3.986-2.99a3.405 3.405 0 001.898.577 3.432 3.432 0 003.428-3.427A3.432 3.432 0 0033.209 0a3.432 3.432 0 00-3.428 3.428c0 .356.07.692.171 1.015l-3.986 2.99a3.405 3.405 0 00-1.898-.578 3.432 3.432 0 00-3.427 3.428 3.4 3.4 0 00.343 1.469l-4.588 4.588a3.385 3.385 0 00-1.468-.344 3.41 3.41 0 00-2.373.964l-3.382-1.691c.017-.138.042-.273.042-.415a3.432 3.432 0 00-3.428-3.428 3.432 3.432 0 00-3.428 3.428 3.432 3.432 0 003.428 3.427z" fill="#fff"/><path d="M37.857 36.715H36.64V12.568c0-.631-.512-1.142-1.143-1.142h-4.57c-.632 0-1.143.511-1.143 1.142v24.147h-2.285V19.424c0-.632-.511-1.143-1.143-1.143h-4.57c-.631 0-1.142.511-1.142 1.143v17.29h-2.286v-8.15c0-.63-.51-1.142-1.142-1.142h-4.57c-.632 0-1.143.511-1.143 1.142v8.15H9.217v-12.72c0-.631-.511-1.142-1.143-1.142h-4.57c-.631 0-1.143.51-1.143 1.142v12.72H1.143a1.142 1.142 0 100 2.286h36.714a1.142 1.142 0 100-2.285z" fill="#fff"/></svg>