<svg width="39" height="39" fill="none" xmlns="http://www.w3.org/2000/svg"><path d="M26.355 15.995h9.141v10.804h-9.14V15.995zm12.265-4.57H.38a.38.38 0 00-.38.38v1.524c0 .21.17.38.38.38h38.24c.21 0 .38-.17.38-.38v-1.524a.38.38 0 00-.38-.38zm-23.69 4.57h9.14v10.804h-9.14V15.995zM35.496 4.191c0-.326-.14-.637-.383-.853L31.685.29a1.142 1.142 0 00-1.518 0l-3.428 3.046a1.143 1.143 0 00-.384.854v4.95h9.141V4.191zM3.504 15.995h9.14v10.804h-9.14V15.995zM38.62 29.084H.38a.38.38 0 00-.38.381v1.536c0 .21.17.38.38.38h38.24c.21 0 .38-.17.38-.38v-1.536a.38.38 0 00-.38-.38zm-12.265 8.772c0 .63.512 1.142 1.143 1.142h6.855c.631 0 1.143-.511 1.143-1.142v-4.19h-9.14v4.19zm-11.425 0c0 .63.511 1.142 1.142 1.142h6.856c.63 0 1.142-.511 1.142-1.142v-4.19h-9.14v4.19zm9.14-33.665c0-.326-.14-.637-.383-.853L20.259.29a1.143 1.143 0 00-1.518 0l-3.428 3.046a1.143 1.143 0 00-.383.854v4.95h9.14V4.191zm-11.425 0c0-.326-.14-.637-.384-.853L8.833.29a1.143 1.143 0 00-1.518 0L3.887 3.337a1.143 1.143 0 00-.383.854V9.14h9.14V4.191zM3.504 37.856c0 .63.511 1.142 1.142 1.142h6.856c.631 0 1.143-.511 1.143-1.142v-4.19H3.504v4.19z" fill="#fff"/></svg>