<svg width="39" height="39" fill="none" xmlns="http://www.w3.org/2000/svg"><path d="M36.422 12.324a2.288 2.288 0 00-3.058-.157c-.13.106-.03.013-2.005 1.988l5.128 5.128 1.843-1.82a2.288 2.288 0 000-3.232l-1.908-1.907zM20.846 24.767l-3.016 6.464a1.143 1.143 0 001.518 1.518l6.464-3.016c.256-.12-.518.605 9.05-8.845l-5.117-5.117c-9.488 9.488-8.777 8.735-8.899 8.996z" fill="#fff"/><path d="M27.736 31.137c-.28.276-.602.5-.959.667l-6.463 3.016a3.423 3.423 0 01-3.873-.682 3.438 3.438 0 01-.683-3.874l3.017-6.463a3.41 3.41 0 01.682-.974l9.717-9.717V3.428A3.432 3.432 0 0025.746 0H3.428A3.432 3.432 0 000 3.428v32.144A3.432 3.432 0 003.428 39h22.318a3.432 3.432 0 003.428-3.428v-5.855l-1.438 1.42zM6.094 7.389h17.062a1.143 1.143 0 010 2.285H6.094a1.143 1.143 0 010-2.285zm0 6.093H19.5a1.143 1.143 0 010 2.286H6.094a1.143 1.143 0 010-2.286zM4.95 20.72c0-.631.512-1.143 1.143-1.143h9.75a1.143 1.143 0 110 2.285h-9.75A1.143 1.143 0 014.95 20.72z" fill="#fff"/></svg>