<svg width="37" height="39" fill="none" xmlns="http://www.w3.org/2000/svg"><path d="M27.604 20.871c-4.999 0-9.065 4.066-9.065 9.065 0 4.998 4.066 9.064 9.064 9.064 5.04 0 9.141-4.066 9.141-9.064 0-4.999-4.1-9.065-9.14-9.065zm2.782 7.968l-3.047 3.656a1.143 1.143 0 01-1.9-.22l-1.219-2.438a1.142 1.142 0 112.044-1.022l.438.875 1.928-2.314a1.143 1.143 0 011.756 1.463z" fill="#fff"/><path d="M27.111 6.51l-4.636-4.795-.007-.007A5.75 5.75 0 0018.394 0H3.686A3.432 3.432 0 00.258 3.428v29.63a3.432 3.432 0 003.428 3.428H18.34a11.287 11.287 0 01-2.086-6.55c0-6.259 5.091-11.35 11.35-11.35.385 0 .766.02 1.142.056V10.51a5.68 5.68 0 00-1.635-4zM12.37 25.517H6.275a1.143 1.143 0 010-2.286h6.094a1.143 1.143 0 010 2.286zm0-6.094H6.275a1.143 1.143 0 110-2.285h6.094a1.143 1.143 0 110 2.285zm0-6.094H6.275a1.143 1.143 0 010-2.285h6.094a1.143 1.143 0 010 2.285zm7.313 6.094h-1.22a1.143 1.143 0 110-2.285h1.22a1.143 1.143 0 110 2.285zm0-6.094h-1.22a1.143 1.143 0 010-2.285h1.22a1.143 1.143 0 010 2.285z" fill="#fff"/></svg>