<svg width="39" height="39" fill="none" xmlns="http://www.w3.org/2000/svg"><path d="M23.004 9.14h2.285v9.141h-2.285v-9.14zm-4.57 4.57h2.285v4.571h-2.285v-4.57z" fill="#fff"/><path d="M24.146 29.707c8.19 0 14.854-6.663 14.854-14.854C39 6.664 32.336 0 24.146 0S9.293 6.664 9.293 14.854s6.664 14.853 14.854 14.853zm-7.998-17.139c0-.631.512-1.142 1.143-1.142h3.428V7.998c0-.631.51-1.143 1.142-1.143h4.57c.632 0 1.143.512 1.143 1.143v5.713h3.428c.632 0 1.143.511 1.143 1.143v4.57c0 .631-.512 1.142-1.143 1.142H17.291a1.142 1.142 0 01-1.143-1.142v-6.856z" fill="#fff"/><path d="M27.574 15.996h2.285v2.285h-2.285v-2.285zM5.85 37.995l8.854-8.852a17.27 17.27 0 01-4.847-4.847l-8.854 8.852a3.43 3.43 0 000 4.847 3.425 3.425 0 004.847 0z" fill="#fff"/></svg>