<svg width="43" height="43" fill="none" xmlns="http://www.w3.org/2000/svg"><path d="M34.766 10.075H43V32.12h-8.234V10.075zm5.238-7.458a1.26 1.26 0 00-2.246 0L35.25 7.556h7.262l-2.508-4.939zm-5.238 35.214c0 1.845 1.511 3.346 3.37 3.346h1.494c1.859 0 3.37-1.5 3.37-3.346V34.64h-8.234v3.191zM26.752 2H5.408A5.415 5.415 0 000 7.408v28.513a5.414 5.414 0 005.408 5.408h21.344a5.414 5.414 0 005.409-5.408V7.408A5.415 5.415 0 0026.752 2zM13.965 33.045H6.446a1.26 1.26 0 110-2.52h7.519a1.26 1.26 0 110 2.52zm0-5.123H6.446a1.26 1.26 0 110-2.52h7.519a1.26 1.26 0 110 2.52zm0-5.04H6.446a1.26 1.26 0 110-2.52h7.519a1.26 1.26 0 110 2.52zm0-5.04H6.446a1.26 1.26 0 110-2.519h7.519a1.26 1.26 0 110 2.52zm0-5.038H6.446a1.26 1.26 0 110-2.52h7.519a1.26 1.26 0 110 2.52z" fill="#fff"/></svg>