<svg width="39" height="39" fill="none" xmlns="http://www.w3.org/2000/svg"><g clip-path="url(#clip0)"><path d="M27.456 9.79h7.204L25.54.67v7.204a1.92 1.92 0 001.916 1.917z" fill="#fff"/><path d="M27.455 12.076a4.207 4.207 0 01-4.202-4.202V0H7.874a4.207 4.207 0 00-4.202 4.202v30.596A4.207 4.207 0 007.874 39h23.253a4.207 4.207 0 004.202-4.202V12.076h-7.874z" fill="#fff"/><path d="M27.698 18.601l-8.076-7.359a.919.919 0 00-1.244 0l-8.076 7.36a.917.917 0 00-.239 1.015c.139.358.477.59.861.59h1.29v7.372c0 .293.237.53.53.53h4.426a.53.53 0 00.53-.53v-4.476h2.6v4.476c0 .293.238.53.53.53h4.427a.53.53 0 00.529-.53v-7.373h1.29a.917.917 0 00.86-.59.918.918 0 00-.238-1.015z" fill="#4A617B"/></g><defs><clipPath id="clip0"><path fill="#fff" d="M0 0h39v39H0z"/></clipPath></defs></svg>