<svg width="40" height="41" fill="none" xmlns="http://www.w3.org/2000/svg"><path d="M20 .326c-11.045 0-20 8.954-20 20s8.955 20 20 20 20-8.954 20-20-8.955-20-20-20zM30.145 22.49c.932.91 1.918 1.768 2.755 2.772.371.445.72.904.986 1.421.38.737.037 1.545-.622 1.589h-4.098c-1.058.087-1.9-.34-2.61-1.064-.567-.576-1.093-1.192-1.639-1.788a3.829 3.829 0 00-.737-.657c-.559-.363-1.044-.252-1.364.332-.326.594-.4 1.252-.432 1.912-.045.967-.336 1.22-1.305 1.264-2.072.098-4.037-.217-5.864-1.261-1.611-.921-2.859-2.221-3.945-3.693-2.117-2.87-3.738-6.019-5.194-9.258-.328-.73-.088-1.12.717-1.136 1.337-.025 2.674-.022 4.012 0 .544.008.904.32 1.113.833.723 1.778 1.609 3.47 2.719 5.038.296.418.598.835 1.028 1.13.475.325.836.218 1.06-.312.143-.337.205-.697.236-1.058.107-1.236.12-2.472-.065-3.703-.114-.77-.548-1.268-1.316-1.414-.391-.074-.334-.219-.143-.442.33-.387.64-.626 1.257-.626h4.63c.73.143.893.47.992 1.205l.004 5.145c-.008.284.143 1.127.654 1.313.409.135.679-.193.924-.452 1.11-1.178 1.9-2.569 2.61-4.008.312-.634.582-1.291.843-1.95.195-.486.498-.725 1.047-.717l4.458.005c.131 0 .265.002.395.024.751.129.957.452.725 1.185-.366 1.151-1.077 2.11-1.772 3.072-.745 1.03-1.539 2.023-2.276 3.057-.678.945-.624 1.421.217 2.242z" fill="#001F43"/></svg>