<svg width="40" height="41" fill="none" xmlns="http://www.w3.org/2000/svg"><g clip-path="url(#clip0)" fill="#001F43"><path d="M17 23.494l6.506-3.747L17 16v7.494z"/><path d="M20 .326c-11.044 0-20 8.956-20 20s8.956 20 20 20 20-8.956 20-20-8.956-20-20-20zm12.497 20.02s0 4.057-.515 6.013a3.132 3.132 0 01-2.203 2.202c-1.956.515-9.779.515-9.779.515s-7.803 0-9.78-.535a3.132 3.132 0 01-2.202-2.203c-.515-1.935-.515-6.012-.515-6.012s0-4.056.515-6.011a3.195 3.195 0 012.203-2.224c1.956-.515 9.779-.515 9.779-.515s7.823 0 9.78.535a3.132 3.132 0 012.202 2.204c.536 1.955.515 6.032.515 6.032z"/></g><defs><clipPath id="clip0"><path fill="#fff" transform="translate(0 .326)" d="M0 0h40v40H0z"/></clipPath></defs></svg>