<svg width="22" height="22" fill="none" xmlns="http://www.w3.org/2000/svg"><g clip-path="url(#clip0)" fill="#fff"><path d="M21.866 20.57l-6.391-6.391a8.664 8.664 0 001.942-5.47C17.417 3.906 13.51 0 8.708 0 3.907 0 0 3.907 0 8.708c0 4.802 3.907 8.709 8.708 8.709 2.072 0 3.974-.73 5.47-1.942l6.392 6.39c.179.18.469.18.648 0l.648-.647a.458.458 0 000-.648zM8.708 15.583a6.883 6.883 0 01-6.875-6.875 6.883 6.883 0 016.875-6.875 6.883 6.883 0 016.875 6.875 6.883 6.883 0 01-6.875 6.875z"/><path d="M9.398 7.742h2.97v1.735h-2.97v3.382H7.555V9.477H4.57V7.742h2.985V4.578h1.843v3.164z"/></g><defs><clipPath id="clip0"><path d="M0 0h22v20a2 2 0 01-2 2H0V0z" fill="#fff"/></clipPath></defs></svg>