<svg width="18" height="18" viewBox="0 0 18 18" fill="none" xmlns="http://www.w3.org/2000/svg">
<path d="M10.31 9.01259L17.7078 1.64704C18.0625 1.29556 18.0625 0.726572 17.7078 0.375988C17.354 0.0245079 16.7794 0.0245079 16.4256 0.375988L9.03422 7.73526L1.57444 0.2663C1.22067 -0.0887667 0.646048 -0.0887667 0.292274 0.2663C-0.0614999 0.622264 -0.0614999 1.19843 0.292274 1.55349L7.7466 9.01707L0.26533 16.4653C-0.0884435 16.8168 -0.0884435 17.3858 0.26533 17.7364C0.619104 18.0879 1.19373 18.0879 1.5475 17.7364L9.02243 10.2944L16.4525 17.7337C16.8063 18.0888 17.3809 18.0888 17.7347 17.7337C18.0884 17.3777 18.0884 16.8016 17.7347 16.4465L10.31 9.01259Z" fill="white"/>
</svg>
