<svg width="18" height="14" viewBox="0 0 18 14" fill="none" xmlns="http://www.w3.org/2000/svg">
<path d="M8.99996 4.54541C7.64585 4.54541 6.54541 5.64585 6.54541 6.99995C6.54541 8.35404 7.64585 9.45448 8.99996 9.45448C10.3541 9.45448 11.4545 8.35404 11.4545 6.99995C11.4545 5.64585 10.354 4.54541 8.99996 4.54541Z" fill="#001F43"/>
<path d="M9.00002 0.86377C4.90909 0.86377 1.41547 3.40829 0 7.00014C1.41547 10.5919 4.90909 13.1365 9.00002 13.1365C13.095 13.1365 16.5846 10.5919 18 7.00014C16.5846 3.40829 13.095 0.86377 9.00002 0.86377ZM9.00002 11.091C6.74184 11.091 4.90909 9.25828 4.90909 7.0001C4.90909 4.74192 6.74184 2.90921 9.00002 2.90921C11.2582 2.90921 13.0909 4.74195 13.0909 7.00014C13.0909 9.25832 11.2582 11.091 9.00002 11.091Z" fill="#001F43"/>
</svg>
