<svg width="14" height="14" viewBox="0 0 14 14" fill="none" xmlns="http://www.w3.org/2000/svg">
<g clip-path="url(#clip0)">
<path d="M6.99894 5.09058C5.94574 5.09058 5.08984 5.94647 5.08984 6.99966C5.08984 8.05285 5.94574 8.90874 6.99894 8.90874C8.05213 8.90874 8.90803 8.05285 8.90803 6.99966C8.90803 5.94647 8.0521 5.09058 6.99894 5.09058Z" fill="#DDDDDD"/>
<path d="M7.00002 2.22729C3.81818 2.22729 1.10092 4.20637 0 7.00002C1.10092 9.79365 3.81818 11.7728 7.00002 11.7728C10.185 11.7728 12.8991 9.79365 14 7.00002C12.8991 4.20637 10.185 2.22729 7.00002 2.22729ZM7.00002 10.1818C5.24365 10.1818 3.81818 8.75636 3.81818 6.99999C3.81818 5.24363 5.24365 3.81819 7.00002 3.81819C8.75638 3.81819 10.1818 5.24366 10.1818 7.00002C10.1818 8.75639 8.75638 10.1818 7.00002 10.1818Z" fill="#DDDDDD"/>
</g>
<defs>
<clipPath id="clip0">
<rect width="14" height="14" fill="white"/>
</clipPath>
</defs>
</svg>
