<svg width="40" height="41" viewBox="0 0 40 41" fill="none" xmlns="http://www.w3.org/2000/svg">
<path d="M40 20.3262C40 9.2793 31.0469 0.326172 20 0.326172C8.95312 0.326172 0 9.2793 0 20.3262C0 31.373 8.95312 40.3262 20 40.3262C20.1172 40.3262 20.2344 40.3262 20.3516 40.3184V24.7559H16.0547V19.748H20.3516V16.0605C20.3516 11.7871 22.9609 9.45898 26.7734 9.45898C28.6016 9.45898 30.1719 9.5918 30.625 9.6543V14.123H28C25.9297 14.123 25.5234 15.1074 25.5234 16.5527V19.7402H30.4844L29.8359 24.748H25.5234V39.5527C33.8828 37.1543 40 29.459 40 20.3262Z" fill="#001F43"/>
</svg>
