<svg width="14" height="18" viewBox="0 0 14 18" fill="none" xmlns="http://www.w3.org/2000/svg">
<path d="M6.99999 0C3.48475 0 0.625 2.85975 0.625 6.37499C0.625 9.77548 6.45324 17.523 6.70151 17.8515C6.77126 17.9453 6.88302 18 7.00002 18C7.11702 18 7.22879 17.9453 7.29854 17.8515C7.54677 17.523 13.375 9.77551 13.375 6.37499C13.375 2.85975 10.5152 0 6.99999 0ZM6.99999 9.74999C5.13924 9.74999 3.62499 8.23574 3.62499 6.37499C3.62499 4.51424 5.13924 2.99999 6.99999 2.99999C8.86074 2.99999 10.375 4.51424 10.375 6.37499C10.375 8.23574 8.86074 9.74999 6.99999 9.74999Z" fill="white"/>
</svg>
