<svg width="18" height="18" viewBox="0 0 18 18" fill="none" xmlns="http://www.w3.org/2000/svg">
<path d="M8.99999 0C5.48475 0 2.625 2.85975 2.625 6.37499C2.625 9.77548 8.45324 17.523 8.70151 17.8515C8.77126 17.9453 8.88302 18 9.00002 18C9.11702 18 9.22879 17.9453 9.29854 17.8515C9.54677 17.523 15.375 9.77551 15.375 6.37499C15.375 2.85975 12.5152 0 8.99999 0ZM8.99999 9.74999C7.13924 9.74999 5.62499 8.23574 5.62499 6.37499C5.62499 4.51424 7.13924 2.99999 8.99999 2.99999C10.8607 2.99999 12.375 4.51424 12.375 6.37499C12.375 8.23574 10.8607 9.74999 8.99999 9.74999Z" fill="#001F43"/>
</svg>
