<svg width="40" height="41" viewBox="0 0 40 41" fill="none" xmlns="http://www.w3.org/2000/svg">
<path d="M23.8281 20.3262C23.8281 22.4404 22.1143 24.1543 20 24.1543C17.8857 24.1543 16.1719 22.4404 16.1719 20.3262C16.1719 18.2119 17.8857 16.498 20 16.498C22.1143 16.498 23.8281 18.2119 23.8281 20.3262Z" fill="#001F43"/>
<path d="M28.9519 13.553C28.7679 13.0544 28.4743 12.603 28.0928 12.2325C27.7224 11.8511 27.2713 11.5575 26.7723 11.3735C26.3677 11.2163 25.7598 11.0292 24.6401 10.9783C23.4288 10.923 23.0657 10.9111 19.9993 10.9111C16.9326 10.9111 16.5694 10.9227 15.3585 10.978C14.2388 11.0292 13.6306 11.2163 13.2262 11.3735C12.7272 11.5575 12.2759 11.8511 11.9057 12.2325C11.5242 12.603 11.2307 13.0541 11.0463 13.553C10.8892 13.9577 10.7021 14.5659 10.6511 15.6856C10.5959 16.8965 10.584 17.2597 10.584 20.3264C10.584 23.3928 10.5959 23.756 10.6511 24.9672C10.7021 26.0869 10.8892 26.6948 11.0463 27.0995C11.2307 27.5984 11.5239 28.0495 11.9054 28.42C12.2759 28.8015 12.7269 29.095 13.2259 29.2791C13.6306 29.4365 14.2388 29.6236 15.3585 29.6746C16.5694 29.7298 16.9323 29.7414 19.999 29.7414C23.066 29.7414 23.4291 29.7298 24.6398 29.6746C25.7595 29.6236 26.3677 29.4365 26.7723 29.2791C27.7739 28.8927 28.5656 28.1011 28.9519 27.0995C29.1091 26.6948 29.2961 26.0869 29.3474 24.9672C29.4026 23.756 29.4142 23.3928 29.4142 20.3264C29.4142 17.2597 29.4026 16.8965 29.3474 15.6856C29.2964 14.5659 29.1094 13.9577 28.9519 13.553ZM19.9993 26.2233C16.7421 26.2233 14.1017 23.5833 14.1017 20.3261C14.1017 17.069 16.7421 14.4289 19.9993 14.4289C23.2561 14.4289 25.8965 17.069 25.8965 20.3261C25.8965 23.5833 23.2561 26.2233 19.9993 26.2233ZM26.1296 15.5739C25.3685 15.5739 24.7515 14.9568 24.7515 14.1957C24.7515 13.4346 25.3685 12.8176 26.1296 12.8176C26.8907 12.8176 27.5078 13.4346 27.5078 14.1957C27.5075 14.9568 26.8907 15.5739 26.1296 15.5739Z" fill="#001F43"/>
<path d="M20 0.326172C8.95599 0.326172 0 9.28217 0 20.3262C0 31.3702 8.95599 40.3262 20 40.3262C31.044 40.3262 40 31.3702 40 20.3262C40 9.28217 31.044 0.326172 20 0.326172ZM31.4151 25.061C31.3596 26.2835 31.1652 27.1182 30.8813 27.8488C30.2847 29.3914 29.0652 30.6109 27.5226 31.2075C26.7923 31.4913 25.9573 31.6854 24.7351 31.7413C23.5104 31.7971 23.1192 31.8105 20.0003 31.8105C16.8811 31.8105 16.4902 31.7971 15.2652 31.7413C14.043 31.6854 13.208 31.4913 12.4777 31.2075C11.7111 30.9191 11.0172 30.4672 10.4434 29.8828C9.85931 29.3093 9.40735 28.6151 9.11896 27.8488C8.83514 27.1185 8.64075 26.2835 8.58521 25.0613C8.52875 23.8363 8.51562 23.4451 8.51562 20.3262C8.51562 17.2073 8.52875 16.816 8.5849 15.5914C8.64044 14.3688 8.83453 13.5342 9.11835 12.8036C9.40674 12.0373 9.85901 11.343 10.4434 10.7696C11.0168 10.1852 11.7111 9.73322 12.4774 9.44482C13.208 9.16101 14.0427 8.96692 15.2652 8.91107C16.4899 8.85522 16.8811 8.8418 20 8.8418C23.1189 8.8418 23.5101 8.85522 24.7348 8.91138C25.9573 8.96692 26.792 9.16101 27.5226 9.44452C28.2889 9.73291 28.9832 10.1852 29.5569 10.7696C30.141 11.3433 30.5933 12.0373 30.8813 12.8036C31.1655 13.5342 31.3596 14.3688 31.4154 15.5914C31.4713 16.816 31.4844 17.2073 31.4844 20.3262C31.4844 23.4451 31.4713 23.8363 31.4151 25.061Z" fill="#001F43"/>
</svg>
