<svg width="20" height="20" viewBox="0 0 20 20" fill="none" xmlns="http://www.w3.org/2000/svg">
<path fill-rule="evenodd" clip-rule="evenodd" d="M3.58398 0.833333H5.41732C5.92358 0.833333 6.33398 1.24374 6.33398 1.75C6.33398 2.2201 5.98011 2.60755 5.52422 2.6605L5.41732 2.66667H3.58398C3.11388 2.66667 2.72644 3.02054 2.67348 3.47643L2.66732 3.58333V16.4167C2.66732 16.8868 3.02119 17.2742 3.47708 17.3272L3.58398 17.3333H16.4173C16.8874 17.3333 17.2749 16.9795 17.3278 16.5236L17.334 16.4167V14.5833C17.334 14.0771 17.7444 13.6667 18.2507 13.6667C18.7208 13.6667 19.1082 14.0205 19.1612 14.4764L19.1673 14.5833V16.4167C19.1673 17.8812 18.0225 19.0784 16.5789 19.162L16.4173 19.1667H3.58398C2.11944 19.1667 0.922295 18.0218 0.838653 16.5783L0.833984 16.4167V3.58333C0.833984 2.11879 1.97883 0.921644 3.4224 0.838001L3.58398 0.833333H5.41732H3.58398ZM18.2507 0.833333L18.3249 0.836083L18.4347 0.851886L18.5368 0.878926L18.6386 0.9192L18.728 0.967162L18.816 1.02839L18.8988 1.10182L18.9873 1.2043L19.053 1.30628L19.0815 1.36216L19.1124 1.43682L19.1345 1.50617L19.161 1.64175L19.1673 1.75V7.25C19.1673 7.75626 18.7569 8.16667 18.2507 8.16667C17.7444 8.16667 17.334 7.75626 17.334 7.25V3.96283L11.5655 9.73151C11.2351 10.062 10.7151 10.0874 10.3555 9.80777L10.2691 9.73151C9.93869 9.40107 9.91327 8.88111 10.1929 8.52151L10.2691 8.43515L16.036 2.66667H12.7507C12.2444 2.66667 11.834 2.25626 11.834 1.75C11.834 1.24374 12.2444 0.833333 12.7507 0.833333H18.2507Z" fill="white"/>
</svg>
