<svg width="18" height="14" viewBox="0 0 18 14" fill="none" xmlns="http://www.w3.org/2000/svg">
<path d="M17.9867 1.87733C17.9867 1.85676 18.0009 1.83674 17.9999 1.81641L12.507 7.10919L17.9934 12.2329C17.9966 12.1963 17.9867 12.1594 17.9867 12.122V1.87733Z" fill="white"/>
<path d="M11.6684 7.92383L9.426 10.0813C9.31252 10.1905 9.16597 10.2452 9.01934 10.2452C8.87576 10.2452 8.73218 10.1928 8.61949 10.0878L6.38319 8.00391L0.860962 13.3267C0.995237 13.375 1.13936 13.4124 1.2903 13.4124H16.7485C16.9726 13.4124 17.1828 13.3442 17.3656 13.2423L11.6684 7.92383Z" fill="white"/>
<path d="M9.01297 8.8508L17.396 0.775462C17.2062 0.662615 16.9853 0.586914 16.7485 0.586914H1.29034C0.981981 0.586914 0.699434 0.706643 0.47937 0.889248L9.01297 8.8508Z" fill="white"/>
<path d="M0 2.07422V12.1221C0 12.2374 0.0265108 12.3486 0.0552896 12.4549L5.50902 7.20309L0 2.07422Z" fill="white"/>
</svg>
