<svg width="18" height="18" viewBox="0 0 18 18" fill="none" xmlns="http://www.w3.org/2000/svg">
<path d="M17.9876 3.87757C17.9876 3.857 18.0017 3.83698 18.0008 3.81665L12.5078 9.10943L17.9942 14.2331C17.9974 14.1965 17.9876 14.1596 17.9876 14.1223V3.87757Z" fill="#001F43"/>
<path d="M11.6688 9.92407L9.42636 12.0815C9.31289 12.1907 9.16634 12.2455 9.01971 12.2455C8.87613 12.2455 8.73254 12.1931 8.61985 12.088L6.38356 10.0042L0.861328 15.327C0.995603 15.3752 1.13973 15.4127 1.29066 15.4127H16.7488C16.973 15.4127 17.1832 15.3444 17.3659 15.2426L11.6688 9.92407Z" fill="#001F43"/>
<path d="M9.01211 10.8513L17.3952 2.77595C17.2054 2.6631 16.9844 2.5874 16.7476 2.5874H1.28948C0.981127 2.5874 0.698579 2.70713 0.478516 2.88974L9.01211 10.8513Z" fill="#001F43"/>
<path d="M0 4.07422V14.1221C0 14.2374 0.0265108 14.3486 0.0552896 14.4549L5.50902 9.20309L0 4.07422Z" fill="#001F43"/>
</svg>
