<svg width="20" height="20" viewBox="0 0 20 20" fill="none" xmlns="http://www.w3.org/2000/svg">
<path d="M11.7969 4.6875H12.9688V9.37508H11.7969V4.6875Z" fill="#001F43"/>
<path d="M9.45312 7.03125H10.625V9.37509H9.45312V7.03125Z" fill="#001F43"/>
<path d="M12.3828 15.2347C16.5828 15.2347 20 11.8174 20 7.61735C20 3.41726 16.5828 0 12.3828 0C8.18286 0 4.76562 3.41726 4.76562 7.61735C4.76562 11.8174 8.18282 15.2347 12.3828 15.2347ZM8.28126 6.44545C8.28126 6.12158 8.54333 5.8595 8.86719 5.8595H10.625V4.10165C10.625 3.77778 10.8871 3.5157 11.2109 3.5157H13.5547C13.8786 3.5157 14.1406 3.77778 14.1406 4.10165V7.0314H15.8985C16.2223 7.0314 16.4844 7.29348 16.4844 7.61735V9.96115C16.4844 10.285 16.2223 10.5471 15.8985 10.5471C15.6461 10.5471 8.74688 10.5471 8.86719 10.5471C8.54333 10.5471 8.28126 10.285 8.28126 9.96115V6.44545Z" fill="#001F43"/>
<path d="M14.1406 8.20312H15.3125V9.37506H14.1406V8.20312Z" fill="#001F43"/>
<path d="M2.9998 19.484L7.54071 14.9442C6.55488 14.2905 5.70871 13.4444 5.05504 12.4585L0.514132 16.9983C-0.171377 17.6838 -0.171377 18.7985 0.514132 19.484C1.20155 20.1715 2.313 20.1708 2.9998 19.484Z" fill="#001F43"/>
</svg>
