<svg width="20" height="20" viewBox="0 0 20 20" fill="none" xmlns="http://www.w3.org/2000/svg">
<g clip-path="url(#clip0)">
<path d="M18.8421 8.61621H1.08271C0.57037 8.61621 0.154785 9.03238 0.154785 9.54472C0.154785 10.0576 0.57037 10.4726 1.08271 10.4726H18.8421C19.355 10.4726 19.7706 10.0576 19.7706 9.54472C19.7706 9.03238 19.355 8.61621 18.8421 8.61621Z" fill="#001F43"/>
<path d="M18.0611 8.0599C18.0611 3.89473 14.9019 0.408591 10.7572 0C11.8291 0.540319 13.7817 1.8646 14.2305 4.51548C14.2567 4.66644 14.1547 4.81041 14.0032 4.83664H13.956C13.8184 4.84014 13.6989 4.74338 13.6744 4.60816C13.1767 1.62737 10.4803 0.45522 9.96272 0.255879C9.44514 0.45522 6.74821 1.62737 6.25102 4.60816C6.22829 4.74163 6.1123 4.84014 5.97649 4.84014H5.92986C5.77715 4.81857 5.67107 4.6781 5.69263 4.52597C5.69263 4.52247 5.69321 4.51898 5.69438 4.51548C6.13736 1.8646 8.08997 0.540319 9.16303 0C5.02 0.411505 1.86319 3.89589 1.86377 8.0599H18.0611Z" fill="#001F43"/>
<path d="M9.9628 15.5463C7.46637 15.5463 5.44324 13.5238 5.44207 11.0273H0.987793V11.9978L3.43584 12.794C3.5868 13.3594 3.81295 13.9026 4.10789 14.4086L2.97362 16.7284L4.30256 18.0573L6.5944 16.8916C7.10266 17.1848 7.64764 17.408 8.21477 17.5578L9.05352 20H10.9327L11.7306 17.552C12.2966 17.4004 12.8404 17.1754 13.3475 16.8823L15.6673 18.0124L16.9963 16.6852L15.8288 14.3917C16.1208 13.884 16.3446 13.3402 16.495 12.7736L18.9372 11.9389V11.0273H14.4835C14.4835 13.5232 12.4598 15.5463 9.96455 15.5463C9.96338 15.5463 9.9628 15.5463 9.9628 15.5463Z" fill="#001F43"/>
</g>
<defs>
<clipPath id="clip0">
<rect width="20" height="20" fill="white"/>
</clipPath>
</defs>
</svg>
