<svg width="20" height="24" viewBox="0 0 20 24" fill="none" xmlns="http://www.w3.org/2000/svg">
<path d="M14.8953 6.02472H19.3287L13.7156 0.411621V4.84501C13.7156 5.4955 14.2448 6.02472 14.8953 6.02472V6.02472Z" fill="#001F43"/>
<path d="M14.8953 7.43123C13.4694 7.43123 12.3093 6.27117 12.3093 4.84528V0H2.84523C1.41934 0 0.259277 1.16002 0.259277 2.58591V21.414C0.259277 22.8399 1.41934 24 2.84518 24H17.1546C18.5805 24 19.7405 22.8399 19.7405 21.414V7.43123H14.8953Z" fill="#001F43"/>
<path d="M11.0856 15.8721H9.51338V17H8.28291V15.8721H7.28193V14.8809H8.28291V14.3584H7.28193V13.3672H8.28291V9.89062H11.0026C11.7871 9.89062 12.4138 10.0957 12.8825 10.5059C13.3513 10.9128 13.5856 11.4548 13.5856 12.1318C13.5856 12.8219 13.3627 13.3639 12.9167 13.7578C12.4707 14.1484 11.8506 14.3486 11.0563 14.3584H9.51338V14.8809H11.0856V15.8721ZM9.51338 13.3672H10.9831C11.4258 13.3672 11.7644 13.2646 11.9987 13.0596C12.2331 12.8545 12.3503 12.5485 12.3503 12.1416C12.3503 11.777 12.2347 11.4792 12.0036 11.248C11.7757 11.0169 11.46 10.8965 11.0563 10.8867H9.51338V13.3672Z" fill="#EAF4FC"/>
</svg>
