<svg width="20" height="20" viewBox="0 0 20 20" fill="none" xmlns="http://www.w3.org/2000/svg">
<path d="M18.679 6.31974C18.251 5.89145 17.5706 5.86454 17.1106 6.23942C17.044 6.29364 17.0956 6.24587 16.0825 7.25888L18.7121 9.88847L19.6572 8.95522C20.1141 8.49831 20.1141 7.75486 19.6572 7.29791L18.679 6.31974Z" fill="#001F43"/>
<path d="M10.6902 12.701L9.14336 16.0156C9.03918 16.2389 9.08578 16.5035 9.26 16.6777C9.43423 16.852 9.69892 16.8985 9.92213 16.7943L13.2368 15.2475C13.368 15.1863 12.971 15.5579 17.8784 10.7118L15.254 8.0874C10.3884 12.953 10.7526 12.5673 10.6902 12.701Z" fill="#001F43"/>
<path d="M14.224 15.9676C14.0804 16.1093 13.915 16.2243 13.7323 16.3096L10.4177 17.8564C9.76584 18.1606 8.96953 18.0448 8.43135 17.5065C7.9106 16.9858 7.76993 16.1876 8.08134 15.5202L9.62822 12.2055C9.71509 12.0193 9.83283 11.8513 9.97811 11.706L14.9613 6.72289V1.75781C14.9613 0.788555 14.1727 0 13.2035 0H1.75786C0.788575 0 0 0.788555 0 1.75781V18.2422C0 19.2114 0.788575 20 1.75786 20H13.2035C14.1727 20 14.9613 19.2114 14.9613 18.2422V15.2394L14.224 15.9676ZM3.12512 3.78906H11.8753C12.1989 3.78906 12.4613 4.05141 12.4613 4.375C12.4613 4.69859 12.1989 4.96094 11.8753 4.96094H3.12512C2.80152 4.96094 2.53917 4.69859 2.53917 4.375C2.53917 4.05141 2.80152 3.78906 3.12512 3.78906ZM3.12512 6.91406H10.0003C10.3239 6.91406 10.5862 7.17641 10.5862 7.5C10.5862 7.82359 10.3239 8.08594 10.0003 8.08594H3.12512C2.80152 8.08594 2.53917 7.82359 2.53917 7.5C2.53917 7.17641 2.80152 6.91406 3.12512 6.91406ZM2.53917 10.625C2.53917 10.3014 2.80152 10.0391 3.12512 10.0391H8.12525C8.44885 10.0391 8.7112 10.3014 8.7112 10.625C8.7112 10.9486 8.44885 11.2109 8.12525 11.2109H3.12512C2.80152 11.2109 2.53917 10.9486 2.53917 10.625Z" fill="#001F43"/>
</svg>
