<svg width="20" height="20" viewBox="0 0 20 20" fill="none" xmlns="http://www.w3.org/2000/svg">
<path d="M13.5156 8.20215H18.2031V13.7428H13.5156V8.20215Z" fill="#001F43"/>
<path d="M19.8047 5.8584H0.195312C0.0874609 5.8584 0 5.94586 0 6.05371V6.83496C0 6.94281 0.0874609 7.03027 0.195312 7.03027H19.8047C19.9125 7.03027 20 6.94281 20 6.83496V6.05371C20 5.94582 19.9125 5.8584 19.8047 5.8584Z" fill="#001F43"/>
<path d="M7.65625 8.20215H12.3438V13.7428H7.65625V8.20215Z" fill="#001F43"/>
<path d="M18.2031 2.14941C18.2031 1.98203 18.1315 1.82266 18.0064 1.71148L16.2486 0.148984C16.0266 -0.0483594 15.6921 -0.0483594 15.4701 0.148984L13.7123 1.71148C13.5872 1.8227 13.5156 1.98207 13.5156 2.14941V4.68676H18.2031V2.14941Z" fill="#001F43"/>
<path d="M1.79688 8.20215H6.48438V13.7428H1.79688V8.20215Z" fill="#001F43"/>
<path d="M19.8047 14.915H0.195312C0.0874609 14.915 0 15.0025 0 15.1104V15.8979C0 16.0057 0.0874609 16.0932 0.195312 16.0932H19.8047C19.9125 16.0932 20 16.0057 20 15.8979V15.1104C20 15.0025 19.9125 14.915 19.8047 14.915Z" fill="#001F43"/>
<path d="M13.5156 19.4134C13.5156 19.737 13.778 19.9993 14.1016 19.9993H17.6172C17.9408 19.9993 18.2031 19.737 18.2031 19.4134V17.2651H13.5156V19.4134Z" fill="#001F43"/>
<path d="M7.65625 19.4134C7.65625 19.737 7.91859 19.9993 8.24219 19.9993H11.7578C12.0814 19.9993 12.3438 19.737 12.3438 19.4134V17.2651H7.65625V19.4134Z" fill="#001F43"/>
<path d="M12.3438 2.14941C12.3438 1.98203 12.2721 1.82266 12.1471 1.71148L10.3893 0.148984C10.1673 -0.0483594 9.8327 -0.0483594 9.6107 0.148984L7.85289 1.71148C7.72785 1.8227 7.65625 1.98207 7.65625 2.14941V4.68676H12.3438V2.14941Z" fill="#001F43"/>
<path d="M6.48438 2.14941C6.48438 1.98203 6.41277 1.82266 6.28769 1.71148L4.52988 0.148984C4.30789 -0.0483594 3.97332 -0.0483594 3.75133 0.148984L1.99352 1.71148C1.86848 1.8227 1.79688 1.98207 1.79688 2.14941V4.68676H6.48438V2.14941Z" fill="#001F43"/>
<path d="M1.79688 19.4134C1.79688 19.737 2.05922 19.9993 2.38281 19.9993H5.89844C6.22203 19.9993 6.48438 19.737 6.48438 19.4134V17.2651H1.79688V19.4134Z" fill="#001F43"/>
</svg>
