<svg width="20" height="20" viewBox="0 0 20 20" fill="none" xmlns="http://www.w3.org/2000/svg">
<path d="M14.668 10.7031C12.1048 10.7031 10.0195 12.7884 10.0195 15.3516C10.0195 17.9147 12.1048 20 14.668 20C17.2527 20 19.3555 17.9147 19.3555 15.3516C19.3555 12.7884 17.2527 10.7031 14.668 10.7031ZM16.0946 14.7892L14.5321 16.6642C14.4201 16.7986 14.2548 16.875 14.0821 16.875C14.0596 16.875 14.0371 16.8737 14.0145 16.8711C13.818 16.8483 13.6464 16.728 13.5579 16.5511L12.9329 15.3011C12.7882 15.0117 12.9055 14.6597 13.195 14.515C13.4844 14.3702 13.8364 14.4876 13.9811 14.777L14.2054 15.2257L15.1944 14.0389C15.4016 13.7904 15.7711 13.7568 16.0196 13.9639C16.2682 14.1711 16.3018 14.5405 16.0946 14.7892Z" fill="#001F43"/>
<path d="M14.4154 3.33801L12.038 0.879453C12.0369 0.878281 12.0357 0.87707 12.0346 0.875898C11.4872 0.319258 10.7255 0 9.94492 0H2.40234C1.43309 0 0.644531 0.788555 0.644531 1.75781V16.9531C0.644531 17.9224 1.43309 18.7109 2.40234 18.7109H9.91758C9.24402 17.7612 8.84766 16.6019 8.84766 15.3516C8.84766 12.1422 11.4586 9.53125 14.668 9.53125C14.8657 9.53125 15.0611 9.54117 15.2539 9.56027V5.38984C15.2539 4.61762 14.9561 3.88906 14.4154 3.33801ZM6.85547 13.0859H3.73047C3.40687 13.0859 3.14453 12.8236 3.14453 12.5C3.14453 12.1764 3.40687 11.9141 3.73047 11.9141H6.85547C7.17906 11.9141 7.44141 12.1764 7.44141 12.5C7.44141 12.8236 7.17906 13.0859 6.85547 13.0859ZM6.85547 9.96094H3.73047C3.40687 9.96094 3.14453 9.69859 3.14453 9.375C3.14453 9.05141 3.40687 8.78906 3.73047 8.78906H6.85547C7.17906 8.78906 7.44141 9.05141 7.44141 9.375C7.44141 9.69859 7.17906 9.96094 6.85547 9.96094ZM6.85547 6.83594H3.73047C3.40687 6.83594 3.14453 6.57359 3.14453 6.25C3.14453 5.92641 3.40687 5.66406 3.73047 5.66406H6.85547C7.17906 5.66406 7.44141 5.92641 7.44141 6.25C7.44141 6.57359 7.17906 6.83594 6.85547 6.83594ZM10.6055 9.96094H9.98047C9.65687 9.96094 9.39453 9.69859 9.39453 9.375C9.39453 9.05141 9.65687 8.78906 9.98047 8.78906H10.6055C10.9291 8.78906 11.1914 9.05141 11.1914 9.375C11.1914 9.69859 10.9291 9.96094 10.6055 9.96094ZM10.6055 6.83594H9.98047C9.65687 6.83594 9.39453 6.57359 9.39453 6.25C9.39453 5.92641 9.65687 5.66406 9.98047 5.66406H10.6055C10.9291 5.66406 11.1914 5.92641 11.1914 6.25C11.1914 6.57359 10.9291 6.83594 10.6055 6.83594Z" fill="#001F43"/>
</svg>
