<svg width="24" height="24" viewBox="0 0 24 24" fill="none" xmlns="http://www.w3.org/2000/svg">
<g clip-path="url(#clip0)">
<path d="M16.8953 6.0252H21.3287L15.7156 0.412109V4.8455C15.7156 5.49599 16.2448 6.0252 16.8953 6.0252Z" fill="#001F43"/>
<path d="M16.8953 7.43123C15.4694 7.43123 14.3093 6.27117 14.3093 4.84528V0H4.84523C3.41934 0 2.25928 1.16002 2.25928 2.58591V21.414C2.25928 22.8399 3.41934 24 4.84518 24H19.1546C20.5805 24 21.7405 22.8399 21.7405 21.414V7.43123H16.8953Z" fill="#001F43"/>
<path d="M17.0447 11.4466L12.0748 6.91814C11.8567 6.71934 11.5277 6.71936 11.3097 6.91812L6.33982 11.4467C6.16508 11.6059 6.10736 11.8512 6.19273 12.0717C6.27812 12.2921 6.48603 12.4345 6.72243 12.4345H7.5162V16.9717C7.5162 17.1516 7.66206 17.2975 7.84195 17.2975H10.566C10.7459 17.2975 10.8918 17.1516 10.8918 16.9717V14.2169H12.4928V16.9718C12.4928 17.1516 12.6387 17.2975 12.8185 17.2975H15.5425C15.7224 17.2975 15.8683 17.1517 15.8683 16.9718V12.4345H16.6622C16.8986 12.4345 17.1065 12.2921 17.1919 12.0717C17.2771 11.8512 17.2194 11.6059 17.0447 11.4466Z" fill="#EAF4FC"/>
</g>
<defs>
<clipPath id="clip0">
<rect width="24" height="24" fill="white"/>
</clipPath>
</defs>
</svg>
