<svg width="39" height="39" viewBox="0 0 39 39" fill="none" xmlns="http://www.w3.org/2000/svg">
<g clip-path="url(#clip0)">
<path d="M27.4562 9.79053H34.6603L25.5391 0.66925V7.87351C25.5391 8.93055 26.3991 9.79053 27.4562 9.79053Z" fill="white"/>
<path d="M27.4554 12.0758C25.1382 12.0758 23.2531 10.1907 23.2531 7.87358V0H7.87405C5.55698 0 3.67188 1.88503 3.67188 4.2021V34.7978C3.67188 37.1149 5.55698 39 7.87397 39H31.1268C33.4439 39 35.3289 37.1149 35.3289 34.7978V12.0758H27.4554Z" fill="white"/>
<path d="M27.6977 18.6011L19.6217 11.2423C19.2672 10.9192 18.7326 10.9193 18.3783 11.2422L10.3023 18.6011C10.0183 18.8599 9.92452 19.2585 10.0632 19.6167C10.202 19.975 10.5399 20.2064 10.924 20.2064H12.2139V27.5794C12.2139 27.8717 12.4509 28.1087 12.7432 28.1087H17.1699C17.4622 28.1087 17.6992 27.8717 17.6992 27.5794V23.1027H20.3009V27.5794C20.3009 27.8717 20.5379 28.1087 20.8302 28.1087H25.2566C25.549 28.1087 25.786 27.8718 25.786 27.5794V20.2064H27.0761C27.4602 20.2064 27.7981 19.9749 27.9369 19.6167C28.0754 19.2585 27.9816 18.8599 27.6977 18.6011Z" fill="#4A617B"/>
</g>
<defs>
<clipPath id="clip0">
<rect width="39" height="39" fill="white"/>
</clipPath>
</defs>
</svg>
