<svg width="39" height="39" viewBox="0 0 39 39" fill="none" xmlns="http://www.w3.org/2000/svg">
<path d="M5.78711 18.2812C6.70891 18.2812 7.54323 17.9114 8.15974 17.3175L11.542 19.0085C11.525 19.1462 11.5 19.2816 11.5 19.4238C11.5 21.3138 13.0377 22.8516 14.9277 22.8516C16.8177 22.8516 18.3555 21.3138 18.3555 19.4238C18.3555 18.8963 18.2257 18.4024 18.0118 17.9554L22.6 13.3673C23.0469 13.5812 23.5408 13.7109 24.0684 13.7109C25.9584 13.7109 27.4961 12.1732 27.4961 10.2832C27.4961 9.92734 27.4262 9.59081 27.325 9.26797L31.3115 6.27882C31.8554 6.64213 32.5074 6.85547 33.209 6.85547C35.099 6.85547 36.6367 5.31775 36.6367 3.42773C36.6367 1.53772 35.099 0 33.209 0C31.319 0 29.7812 1.53772 29.7812 3.42773C29.7812 3.7836 29.8512 4.12012 29.9523 4.44296L25.9658 7.43211C25.4219 7.06881 24.77 6.85547 24.0684 6.85547C22.1783 6.85547 20.6406 8.39319 20.6406 10.2832C20.6406 10.8108 20.7704 11.3047 20.9843 11.7516L16.3961 16.3398C15.9492 16.1258 15.4553 15.9961 14.9277 15.9961C14.0059 15.9961 13.1716 16.3659 12.5551 16.9598L9.17289 15.2689C9.18985 15.1311 9.21484 14.9957 9.21484 14.8535C9.21484 12.9635 7.67712 11.4258 5.78711 11.4258C3.89709 11.4258 2.35938 12.9635 2.35938 14.8535C2.35938 16.7435 3.89709 18.2812 5.78711 18.2812Z" fill="white"/>
<path d="M37.8574 36.7148H36.6387V12.5684C36.6387 11.937 36.1275 11.4258 35.4961 11.4258H30.9258C30.2944 11.4258 29.7832 11.937 29.7832 12.5684V36.7148H27.498V19.4238C27.498 18.7924 26.9869 18.2812 26.3555 18.2812H21.7852C21.1538 18.2812 20.6426 18.7924 20.6426 19.4238V36.7148H18.3574V28.5645C18.3574 27.9331 17.8462 27.4219 17.2148 27.4219H12.6445C12.0131 27.4219 11.502 27.9331 11.502 28.5645V36.7148H9.2168V23.9941C9.2168 23.3627 8.70561 22.8516 8.07422 22.8516H3.50391C2.87251 22.8516 2.36133 23.3627 2.36133 23.9941V36.7148H1.14258C0.511185 36.7148 0 37.226 0 37.8574C0 38.4888 0.511185 39 1.14258 39H37.8574C38.4888 39 39 38.4888 39 37.8574C39 37.226 38.4888 36.7148 37.8574 36.7148Z" fill="white"/>
</svg>
