<svg width="39" height="39" fill="none" xmlns="http://www.w3.org/2000/svg"><g clip-path="url(#clip0)"><path d="M27.456 9.79h7.204L25.54.67v7.203a1.92 1.92 0 001.916 1.917z" fill="#fff"/><path d="M27.455 12.076a4.207 4.207 0 01-4.202-4.202V0H7.874a4.207 4.207 0 00-4.202 4.202v30.596A4.207 4.207 0 007.874 39h23.253a4.207 4.207 0 004.202-4.202V12.076h-7.874z" fill="#fff"/><path d="M21.133 24.744h-3.145V27h-2.46v-2.256h-2.003v-1.982h2.002v-1.045h-2.002v-1.983h2.002v-6.953h5.44c1.569 0 2.822.41 3.76 1.23.937.815 1.406 1.899 1.406 3.253 0 1.38-.446 2.464-1.338 3.252-.892.78-2.132 1.181-3.72 1.2h-3.087v1.046h3.145v1.982zm-3.145-5.01h2.94c.885 0 1.562-.205 2.031-.615.469-.41.703-1.022.703-1.836 0-.729-.231-1.325-.693-1.787-.456-.462-1.088-.703-1.895-.723h-3.086v4.961z" fill="#405670"/></g><defs><clipPath id="clip0"><path fill="#fff" d="M0 0h39v39H0z"/></clipPath></defs></svg>