<svg width="39" height="39" viewBox="0 0 39 39" fill="none" xmlns="http://www.w3.org/2000/svg">
<path d="M26.3555 15.9949H35.4961V26.7991H26.3555V15.9949Z" fill="white"/>
<path d="M38.6191 11.4246H0.380859C0.170549 11.4246 0 11.5951 0 11.8054V13.3289C0 13.5392 0.170549 13.7097 0.380859 13.7097H38.6191C38.8295 13.7097 39 13.5392 39 13.3289V11.8054C39 11.595 38.8295 11.4246 38.6191 11.4246Z" fill="white"/>
<path d="M14.9297 15.9949H24.0703V26.7991H14.9297V15.9949Z" fill="white"/>
<path d="M35.4961 4.19147C35.4961 3.86507 35.3565 3.55429 35.1126 3.3375L31.6848 0.290629C31.2519 -0.0941909 30.5995 -0.0941909 30.1667 0.290629L26.7389 3.3375C26.4951 3.55437 26.3555 3.86515 26.3555 4.19147V9.13929H35.4961V4.19147Z" fill="white"/>
<path d="M3.50391 15.9949H12.6445V26.7991H3.50391V15.9949Z" fill="white"/>
<path d="M38.6191 29.0845H0.380859C0.170549 29.0845 0 29.2551 0 29.4654V31.001C0 31.2113 0.170549 31.3819 0.380859 31.3819H38.6191C38.8295 31.3819 39 31.2113 39 31.001V29.4654C39 29.2551 38.8295 29.0845 38.6191 29.0845Z" fill="white"/>
<path d="M26.3555 37.8558C26.3555 38.4868 26.867 38.9984 27.498 38.9984H34.3535C34.9845 38.9984 35.4961 38.4868 35.4961 37.8558V33.6667H26.3555V37.8558Z" fill="white"/>
<path d="M14.9297 37.8558C14.9297 38.4868 15.4413 38.9984 16.0723 38.9984H22.9277C23.5587 38.9984 24.0703 38.4868 24.0703 37.8558V33.6667H14.9297V37.8558Z" fill="white"/>
<path d="M24.0703 4.19147C24.0703 3.86507 23.9307 3.55429 23.6868 3.3375L20.2591 0.290629C19.8262 -0.0941909 19.1738 -0.0941909 18.7409 0.290629L15.3131 3.3375C15.0693 3.55437 14.9297 3.86515 14.9297 4.19147V9.13929H24.0703V4.19147Z" fill="white"/>
<path d="M12.6445 4.19147C12.6445 3.86507 12.5049 3.55429 12.261 3.3375L8.83327 0.290629C8.40039 -0.0941909 7.74797 -0.0941909 7.31509 0.290629L3.88736 3.3375C3.64353 3.55437 3.50391 3.86515 3.50391 4.19147V9.13929H12.6445V4.19147Z" fill="white"/>
<path d="M3.50391 37.8558C3.50391 38.4868 4.01548 38.9984 4.64648 38.9984H11.502C12.133 38.9984 12.6445 38.4868 12.6445 37.8558V33.6667H3.50391V37.8558Z" fill="white"/>
</svg>
