<svg width="39" height="39" viewBox="0 0 39 39" fill="none" xmlns="http://www.w3.org/2000/svg">
<path d="M36.4224 12.3238C35.5878 11.4886 34.2611 11.4361 33.364 12.1671C33.2343 12.2729 33.3347 12.1797 31.3594 14.1551L36.487 19.2827L38.3298 17.4629C39.2208 16.5719 39.2208 15.1222 38.3298 14.2312L36.4224 12.3238Z" fill="white"/>
<path d="M20.8461 24.7672L17.8299 31.2307C17.6267 31.6662 17.7176 32.1821 18.0573 32.5218C18.397 32.8616 18.9132 32.9524 19.3484 32.7492L25.8119 29.7329C26.0676 29.6136 25.2935 30.3381 34.8628 20.8883L29.7453 15.7708C20.2575 25.2587 20.9678 24.5065 20.8461 24.7672Z" fill="white"/>
<path d="M27.736 31.1369C27.4562 31.4131 27.1336 31.6375 26.7774 31.8037L20.3139 34.8201C19.0429 35.4132 17.4901 35.1874 16.4407 34.1377C15.4253 33.1223 15.151 31.5658 15.7582 30.2643L18.7745 23.8007C18.9439 23.4377 19.1735 23.11 19.4568 22.8267L29.1738 13.1096V3.42773C29.1738 1.53768 27.6361 0 25.7461 0H3.42773C1.53768 0 0 1.53768 0 3.42773V35.5723C0 37.4623 1.53768 39 3.42773 39H25.7461C27.6361 39 29.1738 37.4623 29.1738 35.5723V29.7169L27.736 31.1369ZM6.09383 7.38867H23.1563C23.7873 7.38867 24.2989 7.90024 24.2989 8.53125C24.2989 9.16226 23.7873 9.67383 23.1563 9.67383H6.09383C5.46282 9.67383 4.95125 9.16226 4.95125 8.53125C4.95125 7.90024 5.46282 7.38867 6.09383 7.38867ZM6.09383 13.4824H19.5001C20.1311 13.4824 20.6427 13.994 20.6427 14.625C20.6427 15.256 20.1311 15.7676 19.5001 15.7676H6.09383C5.46282 15.7676 4.95125 15.256 4.95125 14.625C4.95125 13.994 5.46282 13.4824 6.09383 13.4824ZM4.95125 20.7188C4.95125 20.0877 5.46282 19.5762 6.09383 19.5762H15.8438C16.4748 19.5762 16.9864 20.0877 16.9864 20.7188C16.9864 21.3498 16.4748 21.8613 15.8438 21.8613H6.09383C5.46282 21.8613 4.95125 21.3498 4.95125 20.7188Z" fill="white"/>
</svg>
