<svg width="39" height="39" viewBox="0 0 39 39" fill="none" xmlns="http://www.w3.org/2000/svg">
<path d="M23.0039 9.14062H25.2891V18.2812H23.0039V9.14062Z" fill="white"/>
<path d="M18.4336 13.7109H20.7188V18.2812H18.4336V13.7109Z" fill="white"/>
<path d="M24.1465 29.707C32.3365 29.707 39 23.0435 39 14.8535C39 6.66352 32.3364 0 24.1465 0C15.9566 0 9.29297 6.66352 9.29297 14.8535C9.29297 23.0435 15.9565 29.707 24.1465 29.707ZM16.1484 12.5684C16.1484 11.9368 16.6595 11.4258 17.291 11.4258H20.7188V7.99805C20.7188 7.36651 21.2298 6.85547 21.8613 6.85547H26.4316C27.0632 6.85547 27.5742 7.36651 27.5742 7.99805V13.7109H31.002C31.6335 13.7109 32.1445 14.222 32.1445 14.8535V19.4238C32.1445 20.0554 31.6335 20.5664 31.002 20.5664C30.5099 20.5664 17.0564 20.5664 17.291 20.5664C16.6595 20.5664 16.1484 20.0554 16.1484 19.4238V12.5684Z" fill="white"/>
<path d="M27.5742 15.9961H29.8594V18.2812H27.5742V15.9961Z" fill="white"/>
<path d="M5.8496 37.9951L14.7044 29.1427C12.782 27.868 11.132 26.2181 9.85731 24.2957L1.00256 33.1481C-0.334185 34.4849 -0.334185 36.6584 1.00256 37.9952C2.34303 39.3356 4.51035 39.3343 5.8496 37.9951Z" fill="white"/>
</svg>
