<svg width="39" height="39" viewBox="0 0 39 39" fill="none" xmlns="http://www.w3.org/2000/svg">
<path d="M36.7411 16.8014H2.11024C1.11117 16.8014 0.300781 17.6129 0.300781 18.612C0.300781 19.6122 1.11117 20.4214 2.11024 20.4214H36.7411C37.7413 20.4214 38.5517 19.6122 38.5517 18.612C38.5517 17.6129 37.7413 16.8014 36.7411 16.8014Z" fill="white"/>
<path d="M35.2176 15.7168C35.2176 7.59471 29.0573 0.796752 20.9749 0C23.0651 1.05362 26.8727 3.63596 27.7479 8.80519C27.7991 9.09956 27.6002 9.3803 27.3046 9.43145H27.2126C26.9443 9.43827 26.7113 9.24959 26.6636 8.9859C25.6929 3.17337 20.4351 0.887679 19.4258 0.498964C18.4165 0.887679 13.1575 3.17337 12.1879 8.9859C12.1436 9.24618 11.9174 9.43827 11.6526 9.43827H11.5617C11.2639 9.39621 11.057 9.1223 11.0991 8.82565C11.0991 8.81883 11.1002 8.81201 11.1025 8.80519C11.9663 3.63596 15.7739 1.05362 17.8664 0C9.78746 0.802435 3.63168 7.59699 3.63281 15.7168H35.2176Z" fill="white"/>
<path d="M19.427 30.3152C14.559 30.3152 10.6139 26.3712 10.6116 21.5032H1.92578V23.3956L6.69947 24.9482C6.99385 26.0507 7.43485 27.11 8.00996 28.0966L5.79815 32.6202L8.38958 35.2116L12.8587 32.9385C13.8498 33.5102 14.9125 33.9455 16.0184 34.2376L17.654 38.9999H21.3183L22.8743 34.2262C23.978 33.9307 25.0384 33.492 26.0272 32.9203L30.5509 35.1241L33.1423 32.5361L30.8657 28.0636C31.4351 27.0736 31.8716 26.0132 32.1648 24.9084L36.9272 23.2808V21.5032H28.2425C28.2425 26.3701 24.2962 30.3152 19.4304 30.3152C19.4282 30.3152 19.427 30.3152 19.427 30.3152Z" fill="white"/>
</svg>
