<svg width="39" height="39" viewBox="0 0 39 39" fill="none" xmlns="http://www.w3.org/2000/svg">
<path d="M35.3245 3.67492C30.4239 -1.22567 22.4504 -1.2256 17.5498 3.67499C14.2025 7.02237 13.0398 11.9553 14.4892 16.4308L0.334775 30.5853C0.120504 30.7996 0 31.0896 0 31.3932V37.857C0 38.4885 0.511037 38.9995 1.14258 38.9995H7.60637C7.90984 38.9995 8.19998 38.879 8.41417 38.6648L10.0299 37.048C10.2764 36.8014 10.3969 36.4555 10.3568 36.1084L10.1559 34.3723L12.5616 34.1457C13.1083 34.0944 13.5402 33.6626 13.5915 33.1158L13.818 30.7101L15.5542 30.9121C15.8767 30.9556 16.2014 30.8473 16.4457 30.6309C16.6889 30.4134 16.8284 30.1031 16.8284 29.7773V27.6499H18.9172C19.2207 27.6499 19.5108 27.5294 19.725 27.3152L22.6551 24.4238C27.1294 25.8744 31.9771 24.7993 35.3245 21.4496C40.2251 16.5491 40.2251 8.57551 35.3245 3.67492ZM32.0921 11.7545C30.7554 13.0912 28.5818 13.0912 27.2451 11.7545C25.9083 10.4177 25.9083 8.24417 27.2451 6.90743C28.5818 5.57068 30.7554 5.57068 32.0921 6.90743C33.4289 8.24417 33.4288 10.4177 32.0921 11.7545Z" fill="white"/>
</svg>
