<svg width="37" height="39" viewBox="0 0 37 39" fill="none" xmlns="http://www.w3.org/2000/svg">
<path d="M27.6035 20.8711C22.6053 20.8711 18.5391 24.9374 18.5391 29.9355C18.5391 34.9337 22.6053 39 27.6035 39C32.6437 39 36.7441 34.9337 36.7441 29.9355C36.7441 24.9374 32.6437 20.8711 27.6035 20.8711ZM30.3855 28.8389L27.3387 32.4952C27.1202 32.7573 26.7978 32.9062 26.461 32.9062C26.4172 32.9062 26.3733 32.9037 26.3292 32.8986C25.9462 32.8541 25.6114 32.6195 25.4389 32.2746L24.2202 29.8371C23.938 29.2728 24.1668 28.5864 24.7311 28.3043C25.2955 28.0219 25.9819 28.2508 26.2641 28.8152L26.7016 29.6901L28.63 27.3759C29.034 26.8913 29.7545 26.8258 30.2392 27.2296C30.724 27.6336 30.7896 28.3541 30.3855 28.8389Z" fill="white"/>
<path d="M27.1111 6.50912L22.4751 1.71493C22.4729 1.71265 22.4706 1.71029 22.4684 1.708C21.401 0.622553 19.9157 0 18.3936 0H3.68555C1.79549 0 0.257812 1.53768 0.257812 3.42773V33.0586C0.257812 34.9486 1.79549 36.4863 3.68555 36.4863H18.3403C17.0268 34.6344 16.2539 32.3737 16.2539 29.9355C16.2539 23.6773 21.3453 18.5859 27.6035 18.5859C27.9891 18.5859 28.3702 18.6053 28.7461 18.6425V10.5102C28.7461 9.00435 28.1654 7.58367 27.1111 6.50912ZM12.3691 25.5176H6.27539C5.64438 25.5176 5.13281 25.006 5.13281 24.375C5.13281 23.744 5.64438 23.2324 6.27539 23.2324H12.3691C13.0001 23.2324 13.5117 23.744 13.5117 24.375C13.5117 25.006 13.0001 25.5176 12.3691 25.5176ZM12.3691 19.4238H6.27539C5.64438 19.4238 5.13281 18.9123 5.13281 18.2812C5.13281 17.6502 5.64438 17.1387 6.27539 17.1387H12.3691C13.0001 17.1387 13.5117 17.6502 13.5117 18.2812C13.5117 18.9123 13.0001 19.4238 12.3691 19.4238ZM12.3691 13.3301H6.27539C5.64438 13.3301 5.13281 12.8185 5.13281 12.1875C5.13281 11.5565 5.64438 11.0449 6.27539 11.0449H12.3691C13.0001 11.0449 13.5117 11.5565 13.5117 12.1875C13.5117 12.8185 13.0001 13.3301 12.3691 13.3301ZM19.6816 19.4238H18.4629C17.8319 19.4238 17.3203 18.9123 17.3203 18.2812C17.3203 17.6502 17.8319 17.1387 18.4629 17.1387H19.6816C20.3126 17.1387 20.8242 17.6502 20.8242 18.2812C20.8242 18.9123 20.3126 19.4238 19.6816 19.4238ZM19.6816 13.3301H18.4629C17.8319 13.3301 17.3203 12.8185 17.3203 12.1875C17.3203 11.5565 17.8319 11.0449 18.4629 11.0449H19.6816C20.3126 11.0449 20.8242 11.5565 20.8242 12.1875C20.8242 12.8185 20.3126 13.3301 19.6816 13.3301Z" fill="white"/>
</svg>
