<svg width="43" height="43" viewBox="0 0 43 43" fill="none" xmlns="http://www.w3.org/2000/svg">
<path d="M34.7656 10.0752H43.0004V32.1201H34.7656V10.0752Z" fill="white"/>
<path d="M40.0043 2.61696C39.7894 2.19376 39.3551 1.92737 38.881 1.92737C38.4066 1.92737 37.9723 2.19376 37.7577 2.61696L35.25 7.55563H42.5117L40.0043 2.61696Z" fill="white"/>
<path d="M34.7656 37.8314C34.7656 39.6761 36.2773 41.177 38.1355 41.177H39.6305C41.4886 41.177 43.0004 39.6761 43.0004 37.8314V34.6396H34.7656V37.8314Z" fill="white"/>
<path d="M26.7523 2H5.40846C2.42636 2 0 4.42603 0 7.40846V35.9212C0 38.9033 2.42636 41.3293 5.40846 41.3293H26.7523C29.7344 41.3293 32.1608 38.9033 32.1608 35.9212V7.40846C32.1608 4.42603 29.7344 2 26.7523 2ZM13.9647 33.0453H6.44646C5.75063 33.0453 5.18669 32.4814 5.18669 31.7856C5.18669 31.0898 5.75063 30.5258 6.44646 30.5258H13.9647C14.6605 30.5258 15.2245 31.0898 15.2245 31.7856C15.2245 32.4814 14.6605 33.0453 13.9647 33.0453ZM13.9647 27.9216H6.44646C5.75063 27.9216 5.18669 27.3577 5.18669 26.6619C5.18669 25.9661 5.75063 25.4021 6.44646 25.4021H13.9647C14.6605 25.4021 15.2245 25.9661 15.2245 26.6619C15.2245 27.3577 14.6605 27.9216 13.9647 27.9216ZM13.9647 22.8823H6.44646C5.75063 22.8823 5.18669 22.3183 5.18669 21.6225C5.18669 20.9267 5.75063 20.3627 6.44646 20.3627H13.9647C14.6605 20.3627 15.2245 20.9267 15.2245 21.6225C15.2245 22.3183 14.6605 22.8823 13.9647 22.8823ZM13.9647 17.8429H6.44646C5.75063 17.8429 5.18669 17.2789 5.18669 16.5831C5.18669 15.8873 5.75063 15.3233 6.44646 15.3233H13.9647C14.6605 15.3233 15.2245 15.8873 15.2245 16.5831C15.2245 17.2789 14.6605 17.8429 13.9647 17.8429ZM13.9647 12.8035H6.44646C5.75063 12.8035 5.18669 12.2395 5.18669 11.5437C5.18669 10.8479 5.75063 10.2839 6.44646 10.2839H13.9647C14.6605 10.2839 15.2245 10.8479 15.2245 11.5437C15.2245 12.2395 14.6605 12.8035 13.9647 12.8035Z" fill="white"/>
</svg>
