<svg width="18" height="18" viewBox="0 0 18 18" fill="none" xmlns="http://www.w3.org/2000/svg">
<path d="M8.99998 0C4.02943 0 0 4.02943 0 8.99998C0 13.9705 4.02943 18 8.99998 18C13.9705 18 18 13.9705 18 8.99998C17.9947 4.03165 13.9683 0.0053111 8.99998 0ZM9.64285 8.99998C9.64285 9.35503 9.35503 9.64285 8.99998 9.64285H3.85714C3.50209 9.64285 3.21427 9.35503 3.21427 8.99998C3.21427 8.64493 3.50209 8.35711 3.85714 8.35711H8.35715V3.85714C8.35715 3.50209 8.64497 3.21427 9.00002 3.21427C9.35507 3.21427 9.64285 3.50209 9.64285 3.85714V8.99998Z" fill="white"/>
</svg>
