<svg width="40" height="41" viewBox="0 0 40 41" fill="none" xmlns="http://www.w3.org/2000/svg">
<path d="M20 0.326172C8.95468 0.326172 0 9.28044 0 20.3262C0 31.3719 8.95468 40.3262 20 40.3262C31.0453 40.3262 40 31.3719 40 20.3262C40 9.28044 31.0453 0.326172 20 0.326172ZM30.1451 22.4892C31.0772 23.3997 32.0634 24.2566 32.9003 25.2612C33.271 25.7056 33.6205 26.1651 33.8864 26.682C34.2662 27.419 33.9233 28.2271 33.2636 28.2709L29.1662 28.2701C28.108 28.3577 27.2659 27.9309 26.5559 27.2074C25.9892 26.6308 25.4633 26.015 24.9174 25.4188C24.6944 25.174 24.4595 24.9437 24.1796 24.7624C23.6211 24.399 23.1358 24.5103 22.8158 25.0938C22.4896 25.6876 22.4151 26.3456 22.384 27.0065C22.3394 27.9726 22.0481 28.2251 21.0787 28.2705C19.0073 28.3675 17.0418 28.0532 15.2151 27.0089C13.6037 26.0878 12.3564 24.7878 11.2696 23.3158C9.15315 20.4465 7.53228 17.2972 6.07591 14.0575C5.74813 13.3279 5.98793 12.9375 6.79284 12.9224C8.13013 12.8966 9.46742 12.8999 10.8047 12.9212C11.349 12.9298 11.7091 13.2412 11.9182 13.7547C12.6408 15.5327 13.5268 17.2244 14.6369 18.7933C14.9328 19.2111 15.2348 19.6277 15.6649 19.9227C16.1395 20.2484 16.5013 20.1408 16.7251 19.6109C16.8683 19.2741 16.9301 18.914 16.9612 18.5531C17.0676 17.3169 17.0803 16.0811 16.8962 14.8498C16.7816 14.0792 16.3482 13.5816 15.5802 13.4359C15.189 13.3619 15.2462 13.217 15.4365 12.9936C15.7668 12.6073 16.0761 12.3683 16.6944 12.3683L21.3238 12.3675C22.0534 12.5107 22.2171 12.8381 22.3161 13.573L22.3202 18.7176C22.3116 19.002 22.463 19.8449 22.9737 20.0311C23.3829 20.1662 23.653 19.838 23.8977 19.579C25.0079 18.4009 25.7989 17.0104 26.5072 15.5712C26.8198 14.9365 27.0895 14.2797 27.3514 13.6217C27.5462 13.1352 27.849 12.8958 28.3982 12.904L32.8561 12.9093C32.9874 12.9093 33.1208 12.9105 33.2509 12.933C34.0023 13.0615 34.2081 13.3848 33.9757 14.1177C33.6098 15.2692 32.899 16.2284 32.2042 17.19C31.4594 18.2196 30.6652 19.2131 29.9278 20.2472C29.2501 21.1925 29.3037 21.6684 30.1451 22.4892Z" fill="white"/>
</svg>
