<svg width="40" height="41" viewBox="0 0 40 41" fill="none" xmlns="http://www.w3.org/2000/svg">
<g clip-path="url(#clip0)">
<path d="M17 23.4939L23.5057 19.7469L17 16V23.4939Z" fill="#001F43"/>
<path d="M20 0.326172C8.95599 0.326172 0 9.28217 0 20.3262C0 31.3702 8.95599 40.3262 20 40.3262C31.044 40.3262 40 31.3702 40 20.3262C40 9.28217 31.044 0.326172 20 0.326172ZM32.4969 20.3466C32.4969 20.3466 32.4969 24.4027 31.9824 26.3586C31.694 27.4291 30.8499 28.2733 29.7794 28.5613C27.8235 29.0762 20 29.0762 20 29.0762C20 29.0762 12.197 29.0762 10.2206 28.5409C9.15009 28.2528 8.30597 27.4084 8.01758 26.3378C7.50275 24.4027 7.50275 20.3262 7.50275 20.3262C7.50275 20.3262 7.50275 16.2704 8.01758 14.3145C8.30566 13.244 9.17053 12.3791 10.2206 12.091C12.1765 11.5762 20 11.5762 20 11.5762C20 11.5762 27.8235 11.5762 29.7794 12.1115C30.8499 12.3995 31.694 13.244 31.9824 14.3145C32.5177 16.2704 32.4969 20.3466 32.4969 20.3466Z" fill="#001F43"/>
</g>
<defs>
<clipPath id="clip0">
<rect width="40" height="40" fill="white" transform="translate(0 0.326172)"/>
</clipPath>
</defs>
</svg>
